<svg width="567" height="578" viewBox="0 0 567 578" fill="none" xmlns="http://www.w3.org/2000/svg">
<path d="M243.498 116.787C224.882 129.302 209.048 140.485 208.31 141.641C206.27 144.835 203.315 171.713 202.486 194.618C200.64 245.628 208.251 292.339 231.165 370.641L238.011 394.033L254.825 395.399C264.074 396.15 276.121 396.808 281.596 396.861L291.553 396.957L308.205 388.825C319.882 383.122 325.203 379.889 326.015 378.006C327.902 373.627 341.118 324.223 345.327 305.808C353.944 268.115 356.778 243.86 356.815 207.483C356.838 185.111 356.357 176.637 354.233 161.937C352.797 152.004 351.23 143.175 350.75 142.318C349.617 140.292 280.666 94.0328 278.781 94.0328C277.99 94.0328 262.114 104.273 243.498 116.787ZM293.976 154.323C301.125 158.732 306.861 167.78 307.925 176.323C309.024 185.149 305.369 194.163 298.01 200.78C288.41 209.412 277.087 211.053 266.239 205.386C248.809 196.281 244.468 173.902 257.402 159.815C264.346 152.253 269.71 150.022 279.941 150.443C286.777 150.725 289.254 151.409 293.976 154.323Z" fill="black"/>
<path d="M455.851 90.5977C443.424 91.9579 423.619 95.6515 408.976 99.338C399.605 101.697 374.133 109.923 373.081 110.929C372.909 111.094 373.564 112.754 374.536 114.619C375.508 116.484 376.307 118.684 376.312 119.508C376.325 122.315 379.562 122.26 389.349 119.287C402.38 115.329 423.402 110.911 437.435 109.184C454.304 107.105 487.819 108.284 499.294 111.36C517.513 116.243 529.422 124.787 535.206 137.126C538.054 143.201 538.304 144.932 538.26 158.36C538.218 171.38 537.85 174.004 534.89 182.337C517.328 231.766 466.626 290.727 395.617 344.298C359.065 371.875 322.688 394.557 286.845 412.124C231.874 439.064 181.684 456.239 137.561 463.205C118.233 466.256 78.5585 466.236 66.3772 463.17C41.6918 456.954 27.4041 444.137 24.4719 425.577C17.3818 380.691 61.4123 312.876 140.863 246.316C154.526 234.869 167.296 224.963 177.154 218.164L180.912 215.572L178.942 211.235C177.859 208.849 176.85 206.703 176.7 206.464C175.723 204.917 129.59 241.233 107.898 260.626C56.9725 306.151 18.1819 358.088 5.17484 398.16C-10.8778 447.612 10.9047 481.113 63.7328 488.228C77.2287 490.046 119.219 489.075 136.039 486.557C169.563 481.538 203.791 471.877 233.921 458.929C239.55 456.51 244.155 454.687 244.155 454.876C244.155 455.066 242.851 457.768 241.258 460.884C228.822 485.195 232.399 521.31 249.877 547.863C255.794 556.853 271.928 575.037 275.852 577.137C277.714 578.133 279.264 577.083 285.811 570.386C301.08 554.767 309.997 541.005 315.617 524.379C318.798 514.968 319.434 511.157 319.912 498.668C320.381 486.357 320.074 482.416 317.997 474.106C314.816 461.374 307.627 446.814 300.744 439.158C297.76 435.839 295.518 432.942 295.76 432.719C296.003 432.498 300.675 430.081 306.143 427.35C311.611 424.618 323.064 418.483 331.594 413.717C346.996 405.11 347.12 405.066 349.951 407.144C356.564 412 362.219 428.406 362.264 442.863L362.284 449.588H381.582H400.88V408.863V368.138L418.716 354.053C506.549 284.691 559.254 216.117 566.044 162.364C570.657 125.839 551.232 100.621 511.991 92.1883C501.457 89.9252 470.112 89.0374 455.851 90.5977ZM275.969 500.757C275.518 500.916 274.988 491.705 274.791 480.289C274.595 468.871 273.935 456.372 273.326 452.512C272.291 445.961 272.391 445.35 274.852 443.318L277.488 441.142L277.139 470.803C276.947 487.118 276.42 500.597 275.969 500.757Z" fill="black"/>
<path d="M273.216 6.37311C256.782 23.8351 234.068 61.3544 221.563 91.6936C216.431 104.146 209.818 124.413 210.625 125.22C210.958 125.554 226.32 115.779 244.761 103.497C263.202 91.2152 278.755 81.1673 279.323 81.1673C279.892 81.1673 295.45 91.1942 313.897 103.449C332.343 115.704 347.857 125.836 348.369 125.964C349.749 126.308 339.895 97.5018 334.245 84.676C328.31 71.2059 319.489 54.5907 311.58 41.986C304.119 30.0983 287.615 7.95322 282.857 3.44913L279.213 0L273.216 6.37311Z" fill="black"/>
<path d="M191.994 299.163C185.473 306.982 175.528 321.549 164.62 339.257L157.605 350.647V400.244V449.842L160.822 449.082C162.591 448.663 171.532 445.961 180.689 443.078C198.983 437.317 197.658 438.485 199.167 426.781C200.899 413.346 209.008 401.622 219.77 396.992C222.889 395.65 225.441 394.289 225.441 393.966C225.441 393.644 222.767 383.791 219.498 372.069C216.229 360.349 210.203 337.671 206.108 321.676C202.012 305.681 198.502 292.463 198.308 292.303C198.115 292.143 195.273 295.23 191.994 299.163Z" fill="black"/>
<path d="M359.018 299.004C358.405 301.738 353.888 318.923 348.982 337.193C344.075 355.463 340.061 370.574 340.061 370.773C340.061 371.338 371.122 350.642 381.874 342.914C387.182 339.099 391.522 335.357 391.52 334.597C391.514 332.186 362.488 294.033 360.66 294.033C360.37 294.033 359.632 296.27 359.018 299.004Z" fill="black"/>
<path d="M471.64 170.235C461.12 174.08 454.915 187.979 459.794 196.774L461.314 199.515L464.544 196.736C466.813 194.785 467.861 192.676 468.064 189.656C468.515 182.911 473.168 178.724 478.674 180.106C484.192 181.491 485.279 185.883 484.889 205.221L484.539 222.668L487.603 225.731L490.667 228.795L502.206 218.047C508.553 212.135 514.109 206.65 514.555 205.862C514.999 205.073 514.175 202.936 512.723 201.115L510.082 197.804L502.235 205.145L494.387 212.487L495.172 199.529C495.929 187.069 495.84 186.332 492.861 180.36C491.156 176.944 488.406 173.173 486.75 171.979C483.038 169.305 476.312 168.529 471.64 170.235Z" fill="black"/>
<path d="M398.894 241.15L391.645 249.004L395.149 252.512L398.653 256.021L401.859 252.128L405.065 248.233L416.801 260.899C423.256 267.866 429.777 275.013 431.294 276.781C432.81 278.551 434.658 279.998 435.401 279.998C437.072 279.998 443.268 273.185 442.767 271.898C442.234 270.536 407.422 233.207 406.728 233.255C406.406 233.278 402.881 236.83 398.894 241.15Z" fill="black"/>
<path d="M422.185 217.168C418.83 220.566 416.085 223.896 416.085 224.567C416.085 226.166 421.119 230.875 422.827 230.875C423.557 230.875 424.61 230.064 425.164 229.073C425.73 228.06 426.908 227.599 427.853 228.02C428.778 228.432 435.533 235.256 442.864 243.186L456.192 257.602L460.136 254.473C462.305 252.751 463.939 250.739 463.767 250.002C463.521 248.952 429.167 210.992 428.461 210.992C428.364 210.992 425.541 213.772 422.185 217.168Z" fill="black"/>
<path d="M470.629 232.13C466.32 235.518 466.528 236.545 472.465 241.205C474.175 242.546 475.02 242.306 478.565 239.477L482.681 236.193L479.574 232.95C475.853 229.066 474.663 228.957 470.629 232.13Z" fill="black"/>
</svg>
